<svg width="25" height="25" viewBox="0 0 25 25" fill="none" xmlns="http://www.w3.org/2000/svg">
<path fill-rule="evenodd" clip-rule="evenodd" d="M12.1311 0.449079C12.3348 0.245327 12.6652 0.245327 12.8689 0.449079L20.1733 7.75343C20.377 7.95718 20.377 8.28753 20.1733 8.49128C19.9695 8.69503 19.6392 8.69503 19.4354 8.49128L13.0217 2.07759V18.6698C13.0217 18.958 12.7881 19.1916 12.5 19.1916C12.2119 19.1916 11.9783 18.958 11.9783 18.6698V2.07759L5.56458 8.49128C5.36083 8.69503 5.03048 8.69503 4.82673 8.49128C4.62297 8.28753 4.62297 7.95718 4.82673 7.75343L12.1311 0.449079ZM1.02174 18.2629C1.30989 18.2629 1.54348 18.4965 1.54348 18.7846V20.7808C1.54348 21.4364 1.80392 22.0652 2.26751 22.5288C2.7311 22.9923 3.35986 23.2528 4.01548 23.2528H20.9843C20.9843 23.2528 20.9844 23.2528 20.9843 23.2528C21.6399 23.2525 22.2687 22.992 22.7322 22.5285C23.1957 22.0649 23.4562 21.4363 23.4565 20.7808C23.4565 20.7807 23.4565 20.7808 23.4565 20.7808V18.7846C23.4565 18.4965 23.6901 18.2629 23.9783 18.2629C24.2664 18.2629 24.5 18.4965 24.5 18.7846V20.7808C24.4997 21.713 24.1292 22.6071 23.47 23.2663C22.8109 23.9255 21.9169 24.2959 20.9847 24.2963H4.01548C3.08312 24.2963 2.18894 23.9259 1.52966 23.2666C0.87038 22.6073 0.5 21.7132 0.5 20.7808V18.7846C0.5 18.4965 0.733591 18.2629 1.02174 18.2629Z" fill="#727780"/>
</svg>
